####
#
# OBJ File Generated by Meshlab
#
####
# Object right_shoulder2_motor2.obj
#
# Vertices: 132
# Faces: 264
#
####
vn 0.136903 -3.135615 -3.054326
v 0.001000 -0.004500 -0.004000
vn -0.136903 -3.135615 3.054325
v -0.001000 -0.004500 0.004000
vn -0.136903 -3.135615 -3.054326
v -0.001000 -0.004500 -0.004000
vn -0.543455 -3.082091 2.967059
v -0.001695 -0.004439 0.004000
vn -0.543455 -3.082091 -2.967060
v -0.001695 -0.004439 -0.004000
vn 1.070399 2.940897 -3.316126
v -0.000684 -0.001879 -0.004000
vn 0.543456 3.082091 -3.316125
v -0.000347 -0.001970 -0.004000
vn -0.000000 3.129637 -3.316126
v -0.000000 -0.002000 -0.004000
vn 0.543455 -3.082091 -2.967059
v 0.001695 -0.004439 -0.004000
vn 0.136903 -3.135615 3.054327
v 0.001000 -0.004500 0.004000
vn -0.543456 3.082091 -3.316125
v 0.000347 -0.001970 -0.004000
vn -0.543456 3.082091 3.316125
v 0.000347 -0.001970 0.004000
vn 0.000000 3.129637 3.316126
v -0.000000 -0.002000 0.004000
vn 0.543456 3.082091 3.316125
v -0.000347 -0.001970 0.004000
vn 0.543455 -3.082091 2.967060
v 0.001695 -0.004439 0.004000
vn -1.070399 2.940897 3.316126
v 0.000684 -0.001879 0.004000
vn -1.070399 -2.940897 2.967060
v -0.002368 -0.004259 0.004000
vn -1.070399 -2.940897 -2.967059
v -0.002368 -0.004259 -0.004000
vn 1.564819 2.710345 -3.316126
v -0.001000 -0.001732 -0.004000
vn 1.070399 -2.940897 -2.967060
v 0.002368 -0.004259 -0.004000
vn -1.070399 2.940897 -3.316125
v 0.000684 -0.001879 -0.004000
vn 1.070399 2.940897 3.316125
v -0.000684 -0.001879 0.004000
vn 1.070399 -2.940897 2.967059
v 0.002368 -0.004259 0.004000
vn -1.564819 2.710345 3.316126
v 0.001000 -0.001732 0.004000
vn -1.564819 -2.710345 2.967061
v -0.003000 -0.003964 0.004000
vn -1.564819 -2.710345 -2.967060
v -0.003000 -0.003964 -0.004000
vn 2.011692 2.397441 -3.316125
v -0.001286 -0.001532 -0.004000
vn 1.564819 -2.710345 -2.967061
v 0.003000 -0.003964 -0.004000
vn -1.564819 2.710345 -3.316126
v 0.001000 -0.001732 -0.004000
vn 1.564819 2.710345 3.316126
v -0.001000 -0.001732 0.004000
vn 1.564819 -2.710345 2.967060
v 0.003000 -0.003964 0.004000
vn -2.011692 2.397441 3.316125
v 0.001286 -0.001532 0.004000
vn -2.011692 -2.397441 2.967060
v -0.003571 -0.003564 0.004000
vn -2.011692 -2.397441 -2.967060
v -0.003571 -0.003564 -0.004000
vn 2.011692 -2.397441 -2.967060
v 0.003571 -0.003564 -0.004000
vn -2.011692 2.397441 -3.316125
v 0.001286 -0.001532 -0.004000
vn 2.011692 2.397441 3.316125
v -0.001286 -0.001532 0.004000
vn 2.011692 -2.397441 2.967060
v 0.003571 -0.003564 0.004000
vn -2.397441 -2.011692 2.967060
v -0.004064 -0.003071 0.004000
vn -2.397441 -2.011692 -2.967060
v -0.004064 -0.003071 -0.004000
vn 2.397441 2.011692 -3.316125
v -0.001532 -0.001286 -0.004000
vn 2.397441 -2.011692 -2.967060
v 0.004064 -0.003071 -0.004000
vn -2.397441 2.011692 -3.316125
v 0.001532 -0.001286 -0.004000
vn 2.397441 2.011692 3.316125
v -0.001532 -0.001286 0.004000
vn 2.397441 -2.011692 2.967060
v 0.004064 -0.003071 0.004000
vn -2.397441 2.011692 3.316125
v 0.001532 -0.001286 0.004000
vn -2.710345 -1.564819 2.967061
v -0.004464 -0.002500 0.004000
vn -2.710345 -1.564819 -2.967060
v -0.004464 -0.002500 -0.004000
vn 2.710345 1.564819 -3.316125
v -0.001732 -0.001000 -0.004000
vn 2.710345 -1.564819 -2.967061
v 0.004464 -0.002500 -0.004000
vn 2.710345 -1.564819 2.967060
v 0.004464 -0.002500 0.004000
vn -2.710345 1.564819 3.316125
v 0.001732 -0.001000 0.004000
vn -2.940897 -1.070399 2.967059
v -0.004759 -0.001868 0.004000
vn -2.940897 -1.070399 -2.967060
v -0.004759 -0.001868 -0.004000
vn 2.940897 1.070399 -3.316126
v -0.001879 -0.000684 -0.004000
vn 2.940897 -1.070399 -2.967059
v 0.004759 -0.001868 -0.004000
vn -2.710345 1.564819 -3.316126
v 0.001732 -0.001000 -0.004000
vn 2.710345 1.564819 3.316126
v -0.001732 -0.001000 0.004000
vn 2.940897 -1.070399 2.967060
v 0.004759 -0.001868 0.004000
vn -2.940897 1.070399 3.316126
v 0.001879 -0.000684 0.004000
vn -3.082091 -0.543455 2.967060
v -0.004939 -0.001195 0.004000
vn -3.082091 -0.543455 -2.967060
v -0.004939 -0.001195 -0.004000
vn 3.082091 0.543456 -3.316126
v -0.001970 -0.000347 -0.004000
vn 3.082091 -0.543455 -2.967060
v 0.004939 -0.001195 -0.004000
vn -2.940897 1.070399 -3.316125
v 0.001879 -0.000684 -0.004000
vn 2.940897 1.070399 3.316125
v -0.001879 -0.000684 0.004000
vn 3.082091 -0.543455 2.967060
v 0.004939 -0.001195 0.004000
vn -3.082091 0.543456 3.316126
v 0.001970 -0.000347 0.004000
vn -3.135615 -0.136903 3.054327
v -0.005000 -0.000500 0.004000
vn -3.135616 -0.136904 -3.054327
v -0.005000 -0.000500 -0.004000
vn 3.129637 0.000000 -3.316126
v -0.002000 0.000000 -0.004000
vn 3.135615 -0.136903 -3.054327
v 0.005000 -0.000500 -0.004000
vn -3.082091 0.543456 -3.316125
v 0.001970 -0.000347 -0.004000
vn 3.082091 0.543456 3.316125
v -0.001970 -0.000347 0.004000
vn 3.135616 -0.136904 3.054327
v 0.005000 -0.000500 0.004000
vn -3.129637 0.000000 3.316126
v 0.002000 0.000000 0.004000
vn -1.570796 -4.712389 1.570796
v -0.005000 0.004500 0.004000
vn -1.570796 -4.712389 -1.570792
v -0.005000 0.004500 -0.004000
vn 2.940897 -1.070399 -3.316126
v -0.001879 0.000684 -0.004000
vn 3.082091 -0.543456 -3.316125
v -0.001970 0.000347 -0.004000
vn 1.570796 -4.712389 -1.570793
v 0.005000 0.004500 -0.004000
vn -3.129637 -0.000000 -3.316126
v 0.002000 -0.000000 -0.004000
vn -3.082091 -0.543456 -3.316125
v 0.001970 0.000347 -0.004000
vn 3.129637 -0.000000 3.316126
v -0.002000 0.000000 0.004000
vn 3.082091 -0.543456 3.316125
v -0.001970 0.000347 0.004000
vn 1.570796 -4.712389 1.570791
v 0.005000 0.004500 0.004000
vn -2.940897 -1.070399 3.316126
v 0.001879 0.000684 0.004000
vn -3.082091 -0.543456 3.316125
v 0.001970 0.000347 0.004000
vn 2.940897 -1.070399 3.316126
v -0.001879 0.000684 0.004000
vn -2.940897 -1.070399 -3.316126
v 0.001879 0.000684 -0.004000
vn 2.710345 -1.564819 -3.316126
v -0.001732 0.001000 -0.004000
vn 2.710345 -1.564819 3.316126
v -0.001732 0.001000 0.004000
vn -2.710345 -1.564819 -3.316126
v 0.001732 0.001000 -0.004000
vn -2.710345 -1.564819 3.316126
v 0.001732 0.001000 0.004000
vn 2.397441 -2.011692 -3.316125
v -0.001532 0.001286 -0.004000
vn 2.397441 -2.011692 3.316125
v -0.001532 0.001286 0.004000
vn -2.397441 -2.011692 -3.316125
v 0.001532 0.001286 -0.004000
vn -2.397441 -2.011692 3.316125
v 0.001532 0.001286 0.004000
vn 2.011692 -2.397441 -3.316125
v -0.001286 0.001532 -0.004000
vn 2.011692 -2.397441 3.316125
v -0.001286 0.001532 0.004000
vn -2.011692 -2.397441 -3.316125
v 0.001286 0.001532 -0.004000
vn -2.011692 -2.397441 3.316125
v 0.001286 0.001532 0.004000
vn 1.564819 -2.710345 -3.316126
v -0.001000 0.001732 -0.004000
vn 1.564819 -2.710345 3.316126
v -0.001000 0.001732 0.004000
vn -1.564819 -2.710345 -3.316126
v 0.001000 0.001732 -0.004000
vn -1.564819 -2.710345 3.316126
v 0.001000 0.001732 0.004000
vn 1.070399 -2.940897 -3.316125
v -0.000684 0.001879 -0.004000
vn 1.070399 -2.940897 3.316125
v -0.000684 0.001879 0.004000
vn -1.070399 -2.940897 -3.316125
v 0.000684 0.001879 -0.004000
vn -1.070399 -2.940897 3.316125
v 0.000684 0.001879 0.004000
vn 0.543456 -3.082091 -3.316125
v -0.000347 0.001970 -0.004000
vn 0.543456 -3.082091 3.316125
v -0.000347 0.001970 0.004000
vn -0.543456 -3.082091 -3.316125
v 0.000347 0.001970 -0.004000
vn -0.543456 -3.082091 3.316125
v 0.000347 0.001970 0.004000
vn 0.000000 -3.129637 -3.316126
v 0.000000 0.002000 -0.004000
vn -0.000000 -3.129637 3.316126
v 0.000000 0.002000 0.004000
vn -1.570796 -1.570796 1.570796
v -0.010000 0.004500 0.009000
vn -1.570796 -1.570796 -1.570796
v -0.010000 0.004500 -0.009000
vn 1.570796 -1.570797 -1.570796
v 0.010000 0.004500 -0.009000
vn -1.570796 1.570797 1.570796
v -0.010000 0.057500 0.009000
vn -1.570796 1.570796 -1.570796
v -0.010000 0.057500 -0.009000
vn 1.570796 -1.570796 1.570796
v 0.010000 0.004500 0.009000
vn 1.570796 1.570796 -1.570796
v 0.010000 0.057500 -0.009000
vn 1.570796 1.570796 1.570796
v 0.010000 0.057500 0.009000
vn -1.570796 4.712389 -1.570796
v -0.004500 0.057500 -0.006000
vn -1.570796 4.712389 1.570796
v -0.004500 0.057500 0.006000
vn 1.570796 4.712389 -1.570796
v 0.007500 0.057500 -0.006000
vn -1.570796 1.570796 -1.570796
v -0.004500 0.163000 -0.006000
vn 1.570796 1.570796 -1.570796
v 0.007500 0.163000 -0.006000
vn 1.570796 4.712389 1.570796
v 0.007500 0.057500 0.006000
vn 1.570796 1.570796 1.570796
v 0.007500 0.163000 0.006000
vn -1.570796 1.570796 1.570796
v -0.004500 0.163000 0.006000
# 132 vertices, 0 vertices normals

f 1//1 2//2 3//3
f 2//2 4//4 3//3
f 4//4 5//5 3//3
f 5//5 6//6 3//3
f 6//6 7//7 3//3
f 7//7 8//8 3//3
f 8//8 1//1 3//3
f 9//9 10//10 1//1
f 10//10 2//2 1//1
f 8//8 11//11 1//1
f 11//11 9//9 1//1
f 10//10 12//12 2//2
f 12//12 13//13 2//2
f 13//13 14//14 2//2
f 14//14 4//4 2//2
f 9//9 15//15 10//10
f 16//16 12//12 10//10
f 15//15 16//16 10//10
f 4//4 17//17 5//5
f 17//17 18//18 5//5
f 19//19 6//6 5//5
f 18//18 19//19 5//5
f 20//20 15//15 9//9
f 11//11 21//21 9//9
f 21//21 20//20 9//9
f 14//14 22//22 4//4
f 22//22 17//17 4//4
f 20//20 23//23 15//15
f 24//24 16//16 15//15
f 23//23 24//24 15//15
f 17//17 25//25 18//18
f 25//25 26//26 18//18
f 27//27 19//19 18//18
f 26//26 27//27 18//18
f 28//28 23//23 20//20
f 21//21 29//29 20//20
f 29//29 28//28 20//20
f 22//22 30//30 17//17
f 30//30 25//25 17//17
f 28//28 31//31 23//23
f 32//32 24//24 23//23
f 31//31 32//32 23//23
f 25//25 33//33 26//26
f 33//33 34//34 26//26
f 34//34 27//27 26//26
f 35//35 31//31 28//28
f 29//29 36//36 28//28
f 36//36 35//35 28//28
f 30//30 37//37 25//25
f 37//37 33//33 25//25
f 35//35 38//38 31//31
f 38//38 32//32 31//31
f 33//33 39//39 34//34
f 39//39 40//40 34//34
f 40//40 41//41 34//34
f 41//41 27//27 34//34
f 42//42 38//38 35//35
f 36//36 43//43 35//35
f 43//43 42//42 35//35
f 37//37 44//44 33//33
f 44//44 39//39 33//33
f 42//42 45//45 38//38
f 45//45 46//46 38//38
f 46//46 32//32 38//38
f 39//39 47//47 40//40
f 47//47 48//48 40//40
f 48//48 49//49 40//40
f 49//49 41//41 40//40
f 50//50 45//45 42//42
f 43//43 50//50 42//42
f 44//44 47//47 39//39
f 50//50 51//51 45//45
f 51//51 52//52 45//45
f 52//52 46//46 45//45
f 47//47 53//53 48//48
f 53//53 54//54 48//48
f 54//54 55//55 48//48
f 55//55 49//49 48//48
f 56//56 51//51 50//50
f 43//43 57//57 50//50
f 57//57 56//56 50//50
f 58//58 53//53 47//47
f 44//44 58//58 47//47
f 56//56 59//59 51//51
f 59//59 60//60 51//51
f 60//60 52//52 51//51
f 7//7 14//14 8//8
f 14//14 13//13 8//8
f 13//13 11//11 8//8
f 12//12 11//11 13//13
f 6//6 22//22 7//7
f 22//22 14//14 7//7
f 12//12 21//21 11//11
f 16//16 21//21 12//12
f 19//19 30//30 6//6
f 30//30 22//22 6//6
f 16//16 29//29 21//21
f 24//24 29//29 16//16
f 53//53 61//61 54//54
f 61//61 62//62 54//54
f 62//62 63//63 54//54
f 63//63 55//55 54//54
f 64//64 59//59 56//56
f 57//57 65//65 56//56
f 65//65 64//64 56//56
f 66//66 61//61 53//53
f 58//58 66//66 53//53
f 64//64 67//67 59//59
f 67//67 68//68 59//59
f 68//68 60//60 59//59
f 27//27 37//37 19//19
f 37//37 30//30 19//19
f 24//24 36//36 29//29
f 32//32 36//36 24//24
f 41//41 44//44 27//27
f 44//44 37//37 27//27
f 32//32 43//43 36//36
f 46//46 43//43 32//32
f 49//49 58//58 41//41
f 58//58 44//44 41//41
f 46//46 57//57 43//43
f 52//52 57//57 46//46
f 61//61 69//69 62//62
f 69//69 70//70 62//62
f 70//70 71//71 62//62
f 71//71 63//63 62//62
f 72//72 67//67 64//64
f 65//65 73//73 64//64
f 73//73 72//72 64//64
f 74//74 69//69 61//61
f 66//66 74//74 61//61
f 72//72 75//75 67//67
f 75//75 76//76 67//67
f 76//76 68//68 67//67
f 55//55 66//66 49//49
f 66//66 58//58 49//49
f 52//52 65//65 57//57
f 60//60 65//65 52//52
f 63//63 74//74 55//55
f 74//74 66//66 55//55
f 60//60 73//73 65//65
f 68//68 73//73 60//60
f 77//77 78//78 70//70
f 69//69 77//77 70//70
f 78//78 79//79 70//70
f 79//79 80//80 70//70
f 80//80 71//71 70//70
f 81//81 75//75 72//72
f 73//73 82//82 72//72
f 82//82 83//83 72//72
f 83//83 81//81 72//72
f 74//74 84//84 69//69
f 84//84 85//85 69//69
f 85//85 77//77 69//69
f 81//81 86//86 75//75
f 86//86 87//87 75//75
f 87//87 88//88 75//75
f 88//88 76//76 75//75
f 71//71 84//84 63//63
f 84//84 74//74 63//63
f 68//68 82//82 73//73
f 76//76 82//82 68//68
f 76//76 83//83 82//82
f 88//88 83//83 76//76
f 80//80 85//85 71//71
f 85//85 84//84 71//71
f 79//79 89//89 80//80
f 89//89 85//85 80//80
f 90//90 81//81 83//83
f 88//88 90//90 83//83
f 89//89 77//77 85//85
f 87//87 90//90 88//88
f 78//78 91//91 79//79
f 91//91 92//92 79//79
f 92//92 89//89 79//79
f 93//93 81//81 90//90
f 87//87 93//93 90//90
f 92//92 77//77 89//89
f 86//86 94//94 87//87
f 94//94 93//93 87//87
f 78//78 95//95 91//91
f 95//95 96//96 91//91
f 96//96 92//92 91//91
f 97//97 81//81 93//93
f 94//94 97//97 93//93
f 96//96 77//77 92//92
f 86//86 98//98 94//94
f 98//98 97//97 94//94
f 78//78 99//99 95//95
f 99//99 100//100 95//95
f 100//100 96//96 95//95
f 101//101 81//81 97//97
f 98//98 101//101 97//97
f 100//100 77//77 96//96
f 86//86 102//102 98//98
f 102//102 101//101 98//98
f 78//78 103//103 99//99
f 103//103 104//104 99//99
f 104//104 100//100 99//99
f 105//105 81//81 101//101
f 102//102 105//105 101//101
f 104//104 77//77 100//100
f 86//86 106//106 102//102
f 106//106 105//105 102//102
f 78//78 107//107 103//103
f 107//107 108//108 103//103
f 108//108 104//104 103//103
f 109//109 81//81 105//105
f 106//106 109//109 105//105
f 108//108 77//77 104//104
f 86//86 110//110 106//106
f 110//110 109//109 106//106
f 78//78 111//111 107//107
f 111//111 112//112 107//107
f 112//112 108//108 107//107
f 113//113 81//81 109//109
f 110//110 113//113 109//109
f 112//112 77//77 108//108
f 86//86 114//114 110//110
f 114//114 113//113 110//110
f 78//78 115//115 111//111
f 115//115 116//116 111//111
f 116//116 112//112 111//111
f 115//115 81//81 113//113
f 114//114 115//115 113//113
f 86//86 77//77 112//112
f 116//116 86//86 112//112
f 86//86 116//116 114//114
f 116//116 115//115 114//114
f 78//78 81//81 115//115
f 78//78 117//117 118//118
f 81//81 78//78 118//118
f 119//119 81//81 118//118
f 117//117 120//120 118//118
f 120//120 121//121 118//118
f 121//121 119//119 118//118
f 86//86 81//81 119//119
f 122//122 86//86 119//119
f 123//123 122//122 119//119
f 121//121 123//123 119//119
f 77//77 117//117 78//78
f 86//86 122//122 77//77
f 122//122 117//117 77//77
f 122//122 124//124 117//117
f 124//124 120//120 117//117
f 123//123 124//124 122//122
f 125//125 123//123 121//121
f 126//126 125//125 121//121
f 120//120 126//126 121//121
f 127//127 124//124 123//123
f 125//125 127//127 123//123
f 126//126 128//128 125//125
f 128//128 129//129 125//125
f 129//129 127//127 125//125
f 130//130 124//124 127//127
f 129//129 131//131 127//127
f 131//131 130//130 127//127
f 120//120 130//130 126//126
f 132//132 128//128 126//126
f 130//130 132//132 126//126
f 120//120 124//124 130//130
f 131//131 132//132 130//130
f 132//132 129//129 128//128
f 132//132 131//131 129//129
# 264 faces, 0 coords texture

# End of File
